# xmcd
#
# Track frame offsets:
#	150
#	13412
#	29083
#	43420
#	61303
#	78683
#	97530
#	115339
#	127566
#	146983
#	167296
#	183412
#
# Disc length: 2641 seconds
#
# Revision: 1
# Processed by: cddbd v1.5.2PL0 Copyright (c) Steve Scherf et al.
# Submitted via: audiograbber 1.83.01
#
DISCID=a00a4f0c
DTITLE=Joe Zacharias - Live With The End In Mind
DYEAR=2008
DGENRE=Country
TTITLE0=The Other Side Of Blue
TTITLE1=He´s Gonna Run
TTITLE2=Gospel Row
TTITLE3=Bran New Song
TTITLE4=Brush Harbour
TTITLE5=One Prayer Away
TTITLE6=Live With The End In Mind
TTITLE7=Phariss In Me
TTITLE8=With This Song
TTITLE9=She Brings Down The House
TTITLE10=Tears Of Love
TTITLE11=That Rock That Roll
EXTD=
EXTT0=
EXTT1=
EXTT2=
EXTT3=
EXTT4=
EXTT5=
EXTT6=
EXTT7=
EXTT8=
EXTT9=
EXTT10=
EXTT11=
PLAYORDER=
